<?xml version="1.0" encoding="UTF-8" standalone="no"?>
<svg
   version="1.1"
   width="512"
   height="512"
   id="svg7"
   sodipodi:docname="512cc_white.svg"
   inkscape:version="1.4.3 (0d15f75, 2025-12-25)"
   xmlns:inkscape="http://www.inkscape.org/namespaces/inkscape"
   xmlns:sodipodi="http://sodipodi.sourceforge.net/DTD/sodipodi-0.dtd"
   xmlns:xlink="http://www.w3.org/1999/xlink"
   xmlns="http://www.w3.org/2000/svg"
   xmlns:svg="http://www.w3.org/2000/svg">
  <defs
     id="defs7">
    <linearGradient
       id="swatch7"
       inkscape:swatch="solid">
      <stop
         style="stop-color:#ffffff;stop-opacity:1;"
         offset="0"
         id="stop7" />
    </linearGradient>
    <linearGradient
       inkscape:collect="always"
       xlink:href="#swatch7"
       id="linearGradient7"
       x1="-182.43248"
       y1="75.353351"
       x2="60.369712"
       y2="75.353351"
       gradientUnits="userSpaceOnUse" />
  </defs>
  <sodipodi:namedview
     id="namedview7"
     pagecolor="#ffffff"
     bordercolor="#000000"
     borderopacity="0.25"
     inkscape:showpageshadow="2"
     inkscape:pageopacity="0.0"
     inkscape:pagecheckerboard="0"
     inkscape:deskcolor="#d1d1d1"
     inkscape:zoom="2.3769531"
     inkscape:cx="255.78965"
     inkscape:cy="256"
     inkscape:window-width="2560"
     inkscape:window-height="1494"
     inkscape:window-x="-11"
     inkscape:window-y="-11"
     inkscape:window-maximized="1"
     inkscape:current-layer="svg7" />
  <path
     d="M 0,0 3.2576599,0.41607666 6.5136108,0.8326416 C 13.712948,1.7401843 20.915533,2.5169529 28.140472,3.1895142 l 2.835144,0.2658386 c 4.398098,0.4083427 8.797101,0.7983419 13.198548,1.1687317 1.553908,0.1412212 3.107784,0.2828007 4.661621,0.4248047 l 2.123245,0.1605072 c 2.633582,0.2493744 4.77952,0.5815705 7.10112,1.8866119 1.676507,3.0184847 1.405831,6.0694937 1.318604,9.4255367 l -0.02074,2.291001 c -0.02426,2.481467 -0.06827,4.962182 -0.112076,7.443374 -0.04132,3.449161 -0.07112,6.898353 -0.09766,10.347657 l -0.02318,2.638015 c -0.03551,5.699853 0.07121,11.378275 0.31224,17.072922 l 0.09015,2.17685 c 0.1453,3.386485 0.312719,6.769776 0.502137,10.154205 l 0.165527,3.62207 0.17456,3.155029 c -0.248779,2.583252 -0.248779,2.583252 -1.476532,4.247971 -2.341583,1.764242 -3.486619,1.5749 -6.376983,1.283035 L 49.681808,80.692047 46.60141,80.357483 43.37709,80.047089 C 39.956739,79.714753 36.539044,79.36056 33.120941,79.00592 30.921404,78.789021 28.721698,78.573831 26.52182,78.360413 22.07992,77.92783 17.638327,77.492372 13.197113,77.052795 L 9.8199158,76.718811 C 7.5565921,76.492985 5.2935688,76.264128 3.0308533,76.032288 -8.4862104,74.856655 -19.942327,73.79617 -31.527496,73.759827 l -2.526657,-0.01248 c -19.03378,0.179793 -35.606852,9.342624 -49.000687,22.375763 -13.572581,14.389572 -20.1216,32.295742 -22.26172,51.652342 -0.5625,3.23047 -0.5625,3.23047 -2.5625,5.23047 -8.31583,1.6303 -17.16942,1.14598 -25.60156,1.13281 -1.37194,6.8e-4 -2.74388,0.002 -4.11582,0.003 -2.84894,0.001 -5.69784,-6.3e-4 -8.54678,-0.005 -3.65744,-0.006 -7.31481,-0.002 -10.97225,0.004 -2.82059,0.004 -5.64116,0.002 -8.46175,-1.2e-4 -2.00594,-10e-4 -4.01188,0.002 -6.01781,0.005 l -3.65366,-0.01 -3.23037,-0.002 c -2.4,-0.12698 -2.4,-0.12698 -3.4,-1.12698 -3.26802,-40.53251 7.90693,-83.299672 34.34033,-114.586425 2.78538,-3.234025 5.57974,-6.455908 8.65967,-9.413575 l 4.94495,-4.627773 -2.94495,2.627773 C -98.917989,-8.1054179 -47.594141,-6.0836259 0,0 Z"
     fill="#4a7afe"
     transform="translate(281.87906,161.99408)"
     id="path1"
     sodipodi:nodetypes="cccccccccccccccccccccccccccccccccccccccccccccccc"
     style="fill:url(#linearGradient7);fill-opacity:1" />
  <path
     d="M0 0 C3.21741481 -0.0438832 6.43468602 -0.07436856 9.65228271 -0.10119629 C10.63081711 -0.11655426 11.6093515 -0.13191223 12.61753845 -0.1477356 C13.51305923 -0.15219696 14.40858002 -0.15665833 15.33123779 -0.16125488 C16.5096801 -0.17338516 16.5096801 -0.17338516 17.71192932 -0.1857605 C19.63275146 0.04724121 19.63275146 0.04724121 21.63275146 2.04724121 C21.97663411 4.26631297 22.23268277 6.49926603 22.44525146 8.73474121 C24.39249771 25.68482136 31.42479167 40.23500482 42.63275146 53.04724121 C43.18704834 53.68532715 43.74134521 54.32341309 44.31243896 54.98083496 C55.49439775 66.99207777 73.42704347 74.6447676 89.75213623 75.40075684 C107.52042733 75.73208209 124.75537869 73.4035503 142.28869629 70.87518311 C148.35937377 70.00260746 154.43390321 69.15756484 160.50906563 68.31687927 C162.59821921 68.02464649 164.68579804 67.72279058 166.77336121 67.41943359 C173.77985848 66.43309448 180.55470575 65.75231993 187.63275146 66.04724121 C188.70478295 79.93004897 188.85108354 93.79855679 188.87298584 107.71838379 C188.88286721 111.52938286 188.91406868 115.33987968 188.94525146 119.15075684 C188.95176703 121.57327971 188.95702314 123.99580639 188.96087646 126.41833496 C188.97322327 127.55774033 188.98557007 128.69714569 188.99829102 129.87107849 C188.99528992 130.91719803 188.99228882 131.96331757 188.98919678 133.0411377 C188.99466522 134.42316628 188.99466522 134.42316628 189.00024414 135.83311462 C188.87897156 136.5637764 188.75769897 137.29443817 188.63275146 138.04724121 C185.35003966 140.23571575 183.47637101 140.55963817 179.61444092 141.12878418 C178.37076248 141.31592987 177.12708405 141.50307556 175.84571838 141.69589233 C174.47916885 141.89382313 173.1126066 142.0916661 171.74603271 142.28942871 C170.327972 142.50047094 168.91002012 142.71224566 167.49217224 142.92471313 C163.73925832 143.48536152 159.98511488 144.03728686 156.23059082 144.58703613 C150.31413342 145.4548401 144.39963826 146.33594816 138.48503304 147.21627045 C136.30807484 147.53949669 134.13076468 147.86027048 131.95341492 148.18084717 C124.47525217 149.28706738 117.02036957 150.48087768 109.57684326 151.80325317 C99.12093819 153.65221744 89.06156717 154.71152455 78.44525146 154.54724121 C77.72904633 154.54203461 77.01284119 154.536828 76.27493286 154.53146362 C64.08283259 154.42858736 52.41546141 153.29884167 40.63275146 150.04724121 C39.61326416 149.77436279 39.61326416 149.77436279 38.57318115 149.49597168 C18.70157544 144.01093794 1.44302394 133.21803733 -13.36724854 119.04724121 C-14.04142822 118.43622559 -14.71560791 117.82520996 -15.41021729 117.19567871 C-31.24268127 102.34286819 -40.05301008 82.40188498 -46.36724854 62.04724121 C-46.61104248 61.26333008 -46.85483643 60.47941895 -47.10601807 59.67175293 C-51.99537664 43.5562368 -54.01068444 26.99737765 -55.17974854 10.23474121 C-55.23292236 9.52946289 -55.28609619 8.82418457 -55.34088135 8.09753418 C-55.43456641 6.41668908 -55.41170162 4.73010813 -55.36724854 3.04724121 C-52.92833552 0.60832819 -52.2642085 0.78317926 -48.91534424 0.72839355 C-47.98869461 0.70852386 -47.06204498 0.68865417 -46.10731506 0.66818237 C-45.09610092 0.65663116 -44.08488678 0.64507996 -43.04302979 0.63317871 C-41.99060593 0.61381256 -40.93818207 0.59444641 -39.85386658 0.57449341 C-36.4625778 0.51460496 -33.0712479 0.46848565 -29.67974854 0.42224121 C-27.4746555 0.38402974 -25.26957688 0.34497619 -23.06451416 0.30505371 C-17.59267706 0.21028266 -12.1209175 0.13945296 -6.64855957 0.08276367 C-4.4323312 0.05877147 -2.21614014 0.0310916 0 0 Z "
     fill="#E91B33"
     transform="translate(155.36724853515625,317.9527587890625)"
     id="path2"
     style="fill:#e91b33;fill-opacity:0" />
  <path
     d="m 333.22893,39.61288 c 6.442,2.971725 11.24292,7.038381 14.25,13.527344 3.7153,10.884023 -0.90542,19.857448 -5.60937,29.566406 -0.83241,1.678189 -1.66695,3.355327 -2.50391,5.03125 -0.69982,1.426788 -1.39908,2.853853 -2.09766,4.28125 -1.62126,3.288951 -3.27483,6.560464 -4.94043,9.82715 -1.5665,3.08053 -3.10675,6.17409 -4.64941,9.2666 -0.65872,1.31778 -1.31758,2.63548 -1.97656,3.95313 -0.36126,0.72252 -0.72252,1.44504 -1.09473,2.18945 -2.19482,4.38965 -2.19482,4.38965 -4.38965,8.7793 -0.55889,1.11786 -1.11778,2.23572 -1.6936,3.38745 -1.14085,2.28154 -2.28196,4.56296 -3.42334,6.84424 -2.36934,4.73623 -4.73797,9.47272 -7.09009,14.21753 -0.49294,0.99266 -0.49294,0.99266 -0.99585,2.00537 -0.82708,1.66675 -1.65204,3.33454 -2.47681,5.00244 -1.17187,2.24609 -1.17187,2.24609 -2.17187,3.24609 -6.90756,0.25923 -13.53663,-0.41762 -20.37891,-1.3125 -1.05267,-0.13317 -2.10535,-0.26635 -3.18992,-0.40356 -3.33192,-0.42274 -6.66278,-0.85321 -9.99367,-1.28394 -2.27142,-0.28957 -4.5429,-0.57864 -6.81445,-0.86718 -5.54178,-0.70507 -11.08272,-1.41647 -16.62305,-2.13282 0.68536,-2.90891 1.53414,-5.22672 3.00391,-7.83593 0.40637,-0.72655 0.81275,-1.4531 1.23144,-2.20166 0.43796,-0.77135 0.87592,-1.54269 1.32715,-2.33741 0.45472,-0.80872 0.90943,-1.61745 1.37793,-2.45068 1.34828,-2.39426 2.70313,-4.78468 4.05957,-7.17432 0.64324,-1.13953 1.28648,-2.27906 1.94922,-3.45312 4.73476,-8.33975 9.58355,-16.61309 14.42261,-24.89258 3.78892,-6.487005 7.55534,-12.986407 11.30175,-19.49805 1.87681,-3.260217 3.75928,-6.51711 5.64283,-9.773437 2.44309,-4.22404 4.8645,-8.459531 7.27343,-12.703125 1.13621,-1.976857 2.27291,-3.953433 3.41016,-5.929688 0.50346,-0.898638 1.00692,-1.797275 1.52563,-2.723145 7.08221,-12.212968 16.90024,-18.563832 31.33765,-14.151855 z"
     fill="#747474"
     id="path3"
     style="fill:#ffffff;fill-opacity:1;fill-rule:evenodd" />
  <path
     d="m 241.44334,46.963274 c 5.96911,3.35473 9.45594,9.200933 12.45313,15.195312 0.87143,9.301621 -1.03019,17.771457 -3.35938,26.714844 -0.35028,1.386313 -0.6994,2.772922 -1.04742,4.159805 -0.72794,2.889005 -1.46485,5.775499 -2.20941,8.660265 -0.94433,3.65882 -1.87353,7.32126 -2.79684,10.98543 -0.89387,3.54525 -1.79457,7.08875 -2.69633,10.632 -0.16651,0.65585 -0.33301,1.31169 -0.50457,1.98741 -1.09421,4.29638 -2.22922,8.58034 -3.38605,12.86024 -0.47331,1.81796 -0.47331,1.81796 -0.95618,3.67264 -0.48237,1.73515 -0.48237,1.73515 -0.97449,3.50534 -0.27813,1.02618 -0.55627,2.05236 -0.84283,3.10964 -1.50238,3.32248 -3.21,4.71635 -6.2265,6.71238 -2.58936,0.63428 -2.58936,0.63428 -5.36719,0.83594 -1.56017,0.13765 -1.56017,0.13765 -3.15186,0.27808 -1.10746,0.0861 -2.21493,0.17225 -3.35595,0.26098 -12.08541,1.13626 -23.3585,3.65073 -34.97217,7.12183 -2.15283,0.50317 -2.15283,0.50317 -6.15283,0.50317 0.47203,-7.18935 2.70205,-13.65614 5.03412,-20.42187 1.25224,-3.63512 2.4776,-7.27934 3.70806,-10.92187 0.39224,-1.1575 0.39224,-1.1575 0.79239,-2.33838 2.89551,-8.55607 5.70494,-17.13985 8.49826,-25.72974 0.81843,-2.51517 1.64027,-5.029207 2.46228,-7.543212 2.74305,-8.420074 5.39837,-16.851272 7.78635,-25.380005 2.63234,-9.228754 6.15045,-18.520363 14.71854,-23.664917 6.58028,-3.267373 15.55542,-3.404266 22.54687,-1.195312 z"
     fill="#747474"
     id="path4"
     style="fill:#ffffff;fill-opacity:1" />
  <path
     d="m 155.28907,78.855835 c 5.39929,3.784437 9.61849,8.921884 11.71094,15.199218 0.13839,2.287772 0.21848,4.579204 0.2688,6.870607 0.0163,0.69466 0.0326,1.38933 0.0495,2.10504 0.052,2.2971 0.0962,4.59425 0.13877,6.89154 0.0151,0.78535 0.0302,1.57071 0.0458,2.37986 0.0791,4.15536 0.1517,8.31078 0.2196,12.46633 0.0715,4.28998 0.16651,8.57911 0.26677,12.8685 0.0727,3.30097 0.1273,6.60206 0.17708,9.90345 0.0271,1.58134 0.061,3.16257 0.10203,4.74361 0.0558,2.21405 0.0859,4.42708 0.10988,6.64167 0.0355,1.88838 0.0355,1.88838 0.0716,3.81491 -0.5358,3.94835 -1.68238,5.50636 -4.44978,8.31448 -1.95461,1.43881 -3.96004,2.81003 -6,4.125 -6.99426,4.65157 -12.98098,10.02088 -19.00001,15.875 -0.82661,0.78287 -0.82661,0.78287 -1.66993,1.58155 -5.25957,5.08006 -9.4826,10.73902 -13.7871,16.62939 -0.54528,0.73219 -1.09055,1.46438 -1.65235,2.21875 -0.48436,0.66242 -0.96873,1.32483 -1.46777,2.00733 -1.42285,1.56298 -1.42285,1.56298 -4.42285,2.56298 -0.13583,-12.10154 0.23496,-24.14058 0.79736,-36.22827 0.63907,-13.78014 1.22272,-27.55686 1.48779,-41.34985 0.0196,-1.00976 0.0391,-2.01952 0.0593,-3.05988 0.0894,-4.79667 0.16542,-9.59319 0.22561,-14.39032 0.45017,-30.582346 0.45017,-30.582346 8.14086,-38.799802 8.21195,-7.016776 18.90575,-8.99687 28.57814,-3.371093 z"
     fill="#757575"
     id="path5"
     style="fill:#757575;fill-opacity:0" />
  <path
     d="m 354.42686,169.87455 c 1.14484,0.14733 2.28968,0.29466 3.46921,0.44645 1.23751,0.16761 2.47502,0.33521 3.75003,0.50789 1.27127,0.1695 2.54254,0.339 3.85233,0.51363 2.69235,0.36071 5.38383,0.7274 8.07492,1.09746 3.44002,0.47193 6.88248,0.92246 10.32606,1.36764 3.29256,0.43009 6.58184,0.88344 9.87169,1.33377 1.23346,0.15748 2.46692,0.31497 3.73776,0.47722 1.15115,0.16309 2.30229,0.32618 3.48832,0.49422 1.01021,0.13625 2.02042,0.2725 3.06124,0.41289 3.36495,0.95696 5.26732,2.38608 7.78299,4.79145 0.69825,2.53028 0.69825,2.53028 0.79688,5.60938 0.0458,1.2433 0.0915,2.4866 0.13867,3.76758 0.024,1.54098 0.0452,3.082 0.0645,4.62304 0.0267,1.39739 0.0267,1.39739 0.054,2.823 0.12422,6.63784 0.17508,13.2739 0.18628,19.91284 0.01,3.54792 0.041,7.09529 0.0723,10.64307 0.007,2.2539 0.0118,4.50781 0.0156,6.76172 0.0124,1.06132 0.0247,2.12264 0.0374,3.21612 -0.003,0.97572 -0.006,1.95144 -0.009,2.95673 0.005,1.28901 0.005,1.28901 0.0111,2.60406 -0.12128,0.68722 -0.24255,1.37443 -0.3675,2.08246 -8.39866,5.59911 -25.22165,1.3273 -34.91284,0.40088 -2.91044,-0.2769 -5.82188,-0.54063 -8.73364,-0.80322 -1.87442,-0.175 -3.74878,-0.35075 -5.62305,-0.52734 -1.28775,-0.11576 -1.28775,-0.11576 -2.60151,-0.23386 -5.21491,-0.50938 -10.07515,-1.44614 -15.12896,-2.83646 -0.77517,-13.92781 -1.29803,-27.85102 -1.61255,-41.79687 -0.0506,-2.16418 -0.1061,-4.32825 -0.16601,-6.49219 -0.0878,-3.17432 -0.16211,-6.3487 -0.23316,-9.52344 -0.0291,-0.96655 -0.0581,-1.93311 -0.0881,-2.92895 -0.017,-0.89614 -0.0339,-1.79228 -0.0514,-2.71558 -0.0192,-0.78351 -0.0384,-1.56701 -0.0582,-2.37427 0.24288,-2.51701 0.81419,-4.06248 2.20927,-6.1687 3.36379,-1.12126 5.09779,-0.90001 8.58545,-0.44262 z"
     fill="#747474"
     id="path6"
     style="fill:#747474;fill-opacity:0" />
  <path
     d="m 414.10353,374.89647 c 0,23.1 0,46.2 0,70 -7.87574,3.37532 -7.87574,3.37532 -12.27343,3.89135 -0.97792,0.1199 -1.95583,0.2398 -2.96338,0.36333 -1.0356,0.11576 -2.0712,0.23152 -3.13819,0.35079 -1.08329,0.12893 -2.16659,0.25786 -3.28271,0.3907 -2.28213,0.26955 -4.56487,0.534 -6.84815,0.79362 -3.48385,0.39654 -6.96557,0.80882 -10.44726,1.22388 -2.22385,0.26069 -4.44781,0.52048 -6.67188,0.7793 -1.0356,0.12183 -2.0712,0.24366 -3.13818,0.36918 -5.10572,0.57662 -10.09757,1.08645 -15.23682,0.83785 -6.2538,-6.2538 -2.22111,-37.09557 -2.2861,-46.15103 -0.0176,-2.10943 -0.042,-4.2188 -0.0731,-6.32807 -0.0419,-3.00329 -0.0575,-6.00564 -0.0666,-9.00918 -0.0175,-0.91469 -0.0349,-1.82937 -0.0529,-2.77176 0.003,-0.84401 0.006,-1.68801 0.009,-2.55759 -0.006,-0.73813 -0.0117,-1.47627 -0.0178,-2.23677 0.48774,-1.9456 0.48774,-1.9456 2.21852,-3.65129 2.47387,-1.41104 4.2298,-1.84587 7.04681,-2.18567 0.94521,-0.1199 1.89042,-0.2398 2.86427,-0.36333 1.525,-0.17364 1.525,-0.17364 3.0808,-0.35078 1.05586,-0.12893 2.11172,-0.25786 3.19957,-0.3907 2.23608,-0.27042 4.47289,-0.53481 6.71034,-0.79363 3.39455,-0.3936 6.78621,-0.80709 10.17798,-1.22388 2.17889,-0.26095 4.35793,-0.52075 6.53711,-0.77929 1.50374,-0.18275 1.50374,-0.18275 3.03786,-0.36919 17.33225,-1.97896 17.33225,-1.97896 21.61448,0.16216 z"
     fill="#747575"
     id="path7"
     style="fill:#747575;fill-opacity:0" />
</svg>
